<?xml version="1.0" encoding="utf-8"?>
<!-- Generator: Adobe Illustrator 26.0.1, SVG Export Plug-In . SVG Version: 6.00 Build 0)  -->
<svg version="1.1" id="레이어_1" xmlns="http://www.w3.org/2000/svg" xmlns:xlink="http://www.w3.org/1999/xlink" x="0px"
	 y="0px" viewBox="0 0 30 30" style="enable-background:new 0 0 30 30;" xml:space="preserve">
<style type="text/css">
	.st0{fill:#FFFFFF;}
</style>
<g>
	<path class="st0" d="M15.9,9.5v5.1l3.4,3.4c0.4,0.4,0.4,1,0,1.3c-0.4,0.4-1,0.4-1.3,0l-3.7-3.7c-0.2-0.2-0.3-0.4-0.3-0.7V9.5
		c0-0.5,0.4-0.9,0.9-0.9C15.5,8.5,15.9,9,15.9,9.5z M18.7,3h-7.4c-2,0-3.9,0.7-5.5,2V3.9C5.8,3.4,5.4,3,4.9,3S4,3.4,4,3.9v3.7
		c0,0.5,0.4,0.9,0.9,0.9h3.7c0.5,0,0.9-0.4,0.9-0.9S9.1,6.7,8.6,6.7H6.8C8,5.5,9.6,4.9,11.3,4.9h7.4c3.5,0,6.4,2.9,6.4,6.4v7.4
		c0,3.5-2.9,6.4-6.4,6.4h-7.4c-3.5,0-6.4-2.9-6.4-6.4V15c0-0.5-0.4-0.9-0.9-0.9S3,14.5,3,15v3.7c0,4.6,3.7,8.3,8.3,8.3h7.4
		c4.6,0,8.3-3.7,8.3-8.3v-7.4C27,6.7,23.3,3,18.7,3z"/>
</g>
</svg>
