<?xml version="1.0" encoding="utf-8"?>
<!-- Generator: Adobe Illustrator 26.2.1, SVG Export Plug-In . SVG Version: 6.00 Build 0)  -->
<svg version="1.1" id="Layer_1" xmlns="http://www.w3.org/2000/svg" xmlns:xlink="http://www.w3.org/1999/xlink" x="0px" y="0px"
	 viewBox="0 0 30 30" style="enable-background:new 0 0 30 30;" xml:space="preserve">
<style type="text/css">
	.st0{fill:#FFFFFF;}
</style>
<g>
	<path class="st0" d="M8.5,6.5c1.7,0,3.4,1,5.1,2.8l1.5,1.6l1.5-1.6c1.6-1.8,3.3-2.7,4.9-2.7c1.8,0,3.5,1.2,4.3,3.1
		c0.7,1.7,0.5,3.5-0.7,4.8l-9.9,8.5l-9.8-8.5c-1.9-1.8-1.4-4-1-4.8C4.8,8,6.4,6.5,8.5,6.5 M8.5,4.5c-5.5,0-9.1,7.1-4.6,11.3L15,25.5
		l11.3-9.7c4.1-4.2,0.5-11.3-4.9-11.3c-2,0-4.2,1-6.4,3.4C12.8,5.5,10.5,4.5,8.5,4.5L8.5,4.5z"/>
</g>
</svg>
