<svg width="132" height="132" viewBox="0 0 132 132" fill="none" xmlns="http://www.w3.org/2000/svg">
<path d="M61 0H71V132H61V0Z" fill="#E31837"/>
<path d="M29 11L37.6603 6L103.66 120.315L95 125.315L29 11Z" fill="#E31837"/>
<path d="M6 38L11 29.3397L125.315 95.3397L120.315 104L6 38Z" fill="#E31837"/>
<path d="M104 11L95.3397 6L29.3398 120.315L38 125.315L104 11Z" fill="#E31837"/>
<path d="M125 38L120 29.3397L5.68465 95.3397L10.6846 104L125 38Z" fill="#E31837"/>
<path d="M1.56959e-05 71L1.52588e-05 61L132 61V71L1.56959e-05 71Z" fill="#E31837"/>
</svg>
