<?xml version="1.0" encoding="utf-8"?>
<!-- Generator: Adobe Illustrator 26.0.1, SVG Export Plug-In . SVG Version: 6.00 Build 0)  -->
<svg version="1.1" id="레이어_1" xmlns="http://www.w3.org/2000/svg" xmlns:xlink="http://www.w3.org/1999/xlink" x="0px"
	 y="0px" viewBox="0 0 159.5 47.5" style="enable-background:new 0 0 159.5 47.5;" xml:space="preserve">
<style type="text/css">
	.st0{fill:#E5E5E5;}
</style>
<g>
	<g>
		<g>
			<rect x="115.5" y="6.7" class="st0" width="3.9" height="36.4"/>
			<rect x="154.8" y="6.7" class="st0" width="3.9" height="36.4"/>
			<path class="st0" d="M99.1,11.6c-5.7,0-10.5,4.7-10.5,10.5s4.8,10.5,10.5,10.5s10.5-4.8,10.5-10.5C109.6,16.2,105,11.6,99.1,11.6
				z M99.1,28.6c-3.6,0-6.6-2.9-6.6-6.6s2.9-6.6,6.6-6.6s6.6,2.9,6.6,6.6S102.8,28.6,99.1,28.6z"/>
			<path class="st0" d="M145.5,16.2l0.1-0.3v-1.4l0,0v-2.8h-15.8v3.9h11.8c-2.5,7.7-9.4,12.3-13.6,15.1l2.2,3.4
				c2.5-1.7,6.2-4.1,9.4-7.6c1.7,1.4,4.6,4.1,8.1,6.9l2.5-3.1c-3.5-2.9-6.6-5.5-8.1-6.9C143.4,21.2,144.6,18.8,145.5,16.2z"/>
		</g>
		<g>
			<path class="st0" d="M67.8,29.9c-4.8,0-8.7,3.9-8.7,8.7s3.9,8.7,8.7,8.7c4.8,0,8.7-3.9,8.7-8.7S72.5,29.9,67.8,29.9z M67.8,43.3
				c-2.7,0-4.8-2.1-4.8-4.8s2.1-4.8,4.8-4.8c2.7,0,4.8,2.1,4.8,4.8S70.4,43.3,67.8,43.3z"/>
			<path class="st0" d="M29.4,15.5h-9.8c-2-2-4.6-3.2-7.6-3.2c-5.7,0-10.5,4.8-10.5,10.5S6.3,33.3,12,33.3c2.9,0,5.7-1.3,7.6-3.2
				h9.8v13h3.9V6.7h-3.9V15.5z M12,29.2c-3.6,0-6.6-2.9-6.6-6.6S8.3,16,12,16s6.6,3,6.6,6.6S15.7,29.2,12,29.2z M21.8,26.3
				c0.4-1.1,0.7-2.4,0.7-3.6s-0.3-2.5-0.7-3.6h7.6v7.3C29.4,26.3,21.8,26.3,21.8,26.3z"/>
			<path class="st0" d="M63.1,22.5c0-1.8-0.6-3.5-1.7-4.9H65v-3.4H45.2v3.4h3.2c-1,1.4-1.7,3.1-1.7,4.9c0,4.5,3.6,8.1,8.1,8.1
				C59.5,30.6,63.1,27,63.1,22.5z M55,26.7c-2.4,0-4.2-1.8-4.2-4.2s1.8-4.2,4.2-4.2s4.2,1.8,4.2,4.2C59.2,24.7,57.4,26.7,55,26.7z"
				/>
			<polygon class="st0" points="74.9,6.7 74.9,16.9 70.7,16.9 70.7,6.7 67.2,6.7 67.2,28.8 70.7,28.8 70.7,20.2 74.9,20.2 
				74.9,29.2 78.5,29.2 78.5,6.7 			"/>
			<path class="st0" d="M60.2,11.7c0.3,0,0.7,0,1,0V8.3c-0.3,0-0.7,0-1,0c-3.5,0-7.3,0-10.1-1.1l-1.3,3.1c3.1,1.3,6.9,1.4,10.3,1.4
				C59.5,11.7,59.8,11.7,60.2,11.7z"/>
		</g>
	</g>
	<g>
		<path class="st0" d="M23.2,4c-0.4-0.3-0.8-0.6-1.4-0.8C17.1,0.5,11.6-0.1,6.4,1.3C4.4,2,2.5,2.8,0.8,4l2.5,3.1
			c1.3-0.8,2.8-1.5,4.3-2c1.5-0.4,3-0.5,4.6-0.5c2.8,0,5.5,0.7,8,2.1c0.1,0.1,0.4,0.2,0.5,0.4L23.2,4z"/>
		<path class="st0" d="M110.5,4c-0.5-0.3-0.9-0.6-1.4-0.8C104.3,0.5,98.9,0,93.7,1.4c-2.1,0.7-3.9,1.5-5.7,2.7l2.5,3.1
			c1.3-0.8,2.8-1.5,4.3-2c1.4-0.4,2.9-0.6,4.5-0.6c2.8,0,5.5,0.7,8,2.1c0.3,0.1,0.6,0.3,0.8,0.4L110.5,4z"/>
	</g>
</g>
</svg>
