<?xml version="1.0" encoding="utf-8"?>
<!-- Generator: Adobe Illustrator 26.2.1, SVG Export Plug-In . SVG Version: 6.00 Build 0)  -->
<svg version="1.1" id="Layer_1" xmlns="http://www.w3.org/2000/svg" xmlns:xlink="http://www.w3.org/1999/xlink" x="0px" y="0px"
	 viewBox="0 0 30 30" style="enable-background:new 0 0 30 30;" xml:space="preserve">
<style type="text/css">
	.st0{fill:none;stroke:#FFFFFF;stroke-width:2;stroke-miterlimit:10;}
</style>
<g>
	<path class="st0" d="M25.7,18.8c0.6,0.4,0.8,1,0.8,1.6v3.5c0,0.8-0.7,1.4-1.4,1.4H4.9c-0.8,0-1.4-0.7-1.4-1.4v-3.5
		c0-0.7,0.2-1.2,0.8-1.6l8-5v-2.1c0-0.4,0.3-0.7,0.7-0.7h4.3c0.4,0,0.7,0.3,0.7,0.7v2.1L25.7,18.8L25.7,18.8z M15,21.6
		c1.3,0,2.4-1,2.4-2.4s-1-2.4-2.4-2.4s-2.4,1-2.4,2.4S13.7,21.6,15,21.6L15,21.6z"/>
</g>
<g>
	<path class="st0" d="M23.4,6.2c-2.2-1-5.8-1.5-8.3-1.5c-2.8,0-5.8,0.4-8.3,1.5C5.4,6.7,3.4,8.1,3.4,9.9c0,0.6,0.7,2.1,1,2.8l0,0
		c0.2,0.5,0.8,0.9,1.3,0.7l3.2-0.9c0.6-0.2,1-0.9,0.9-1.4l-0.1-0.3c-0.2-1.1,0.5-2.2,1.5-2.5c0.1,0,0.2,0,0.3-0.1
		c2.4-0.4,4.8-0.4,7.2,0c1.1,0.2,1.9,1.2,1.7,2.2c0,0.1,0,0.2-0.1,0.3l-0.1,0.3c-0.2,0.6,0.2,1.3,0.9,1.4l3.2,0.9c0.1,0,0.2,0,0.4,0
		c0.5,0,0.9-0.3,1.1-0.7l0,0c0.3-0.5,1-2.1,1-2.8C26.8,8.1,24.8,6.8,23.4,6.2L23.4,6.2z"/>
</g>
</svg>
