<svg viewBox="0 0 137.83 38.81" xmlns="http://www.w3.org/2000/svg" aria-hidden="true" class="c-icon-text-link__icon"><path d="M137.1 17.64L120.2.73a2.5 2.5 0 00-3.54 3.54l12.15 12.14c-15.28-2.12-21 1.19-25.63 3.88-2.73 1.58-4.88 2.82-8.78 2.82-3.18 0-4.87-2-7.38-5.23s-5.53-7.19-11.34-7.19-8.79 4-11.16 7.23-4 5.19-7.13 5.19-4.77-2-7.14-5.19-5.32-7.23-11.16-7.23-8.79 4-11.16 7.23-4 5.19-7.13 5.19-4.77-2-7.14-5.19-5.32-7.23-11.16-7.23a2.5 2.5 0 000 5c3.15 0 4.76 2 7.13 5.2S15 28.11 20.8 28.11s8.79-4 11.16-7.22 4-5.2 7.13-5.2 4.77 2 7.14 5.2 5.32 7.22 11.16 7.22 8.79-4 11.16-7.22 4-5.2 7.13-5.2 4.88 2 7.38 5.24 5.54 7.18 11.34 7.18c5.24 0 8.31-1.78 11.28-3.5 4.33-2.5 9.22-5.33 23.94-3l-13 13a2.5 2.5 0 003.54 3.54l16.9-16.91a2.49 2.49 0 00.04-3.6z"></path></svg>