<svg width="32" height="32" viewBox="0 0 32 32" fill="none" xmlns="http://www.w3.org/2000/svg">
<circle cx="16" cy="16" r="15" fill="#1A9746"/>
<path d="M22.1266 23.136C20.4626 23.808 18.9106 24.192 17.4706 24.288C16.0466 24.4 14.7586 24.272 13.6066 23.904C12.4546 23.52 11.4706 22.944 10.6546 22.176C9.83863 21.408 9.21463 20.496 8.78263 19.44C8.35063 18.384 8.13463 17.232 8.13463 15.984C8.13463 14.752 8.33463 13.616 8.73463 12.576C9.13463 11.52 9.71863 10.608 10.4866 9.84C11.2706 9.072 12.2146 8.472 13.3186 8.04C14.4226 7.608 15.6786 7.4 17.0866 7.416C18.4946 7.416 20.0386 7.672 21.7186 8.184C21.7186 8.856 21.7186 9.536 21.7186 10.224C21.7186 10.896 21.7186 11.568 21.7186 12.24C20.3906 11.712 19.1586 11.408 18.0226 11.328C16.9026 11.248 15.9186 11.368 15.0706 11.688C14.2386 12.008 13.5826 12.52 13.1026 13.224C12.6386 13.912 12.4066 14.776 12.4066 15.816C12.4066 16.728 12.5746 17.536 12.9106 18.24C13.2626 18.944 13.7506 19.496 14.3746 19.896C14.9986 20.296 15.7106 20.496 16.5106 20.496C16.7826 20.496 17.0546 20.488 17.3266 20.472C17.5986 20.44 17.8626 20.392 18.1186 20.328C18.1186 19.912 18.1186 19.488 18.1186 19.056C18.1186 18.624 18.1186 18.2 18.1186 17.784C17.6706 17.784 17.2226 17.784 16.7746 17.784C16.3266 17.784 15.8786 17.784 15.4306 17.784C15.4306 17.192 15.4306 16.6 15.4306 16.008C15.4306 15.4 15.4306 14.8 15.4306 14.208C16.5346 14.208 17.6466 14.208 18.7666 14.208C19.9026 14.208 21.0226 14.208 22.1266 14.208C22.1266 15.68 22.1266 17.168 22.1266 18.672C22.1266 20.176 22.1266 21.664 22.1266 23.136Z" fill="white"/>
</svg>
