<svg width="154" height="31" viewBox="0 0 154 31" fill="none" xmlns="http://www.w3.org/2000/svg">
<path d="M10.4004 2.67188H14.9854V17.3936C14.9854 18.8193 14.668 20.0498 14.0332 21.085C13.4082 22.1104 12.5537 22.9014 11.4697 23.458C10.3857 24.0146 9.16016 24.293 7.79297 24.293C6.39648 24.293 5.15137 24.0586 4.05762 23.5898C2.97363 23.1113 2.11914 22.3838 1.49414 21.4072C0.878906 20.4209 0.571289 19.1709 0.571289 17.6572H5.2002C5.2002 18.7705 5.42969 19.5371 5.88867 19.957C6.35742 20.377 6.99219 20.5869 7.79297 20.5869C8.32031 20.5869 8.7793 20.4648 9.16992 20.2207C9.56055 19.9668 9.86328 19.6055 10.0781 19.1367C10.293 18.6582 10.4004 18.0771 10.4004 17.3936V2.67188ZM24.5666 24.293C22.8967 24.293 21.466 23.9463 20.2746 23.2529C19.093 22.5596 18.1848 21.6318 17.55 20.4697C16.925 19.3076 16.6125 18.0234 16.6125 16.6172V16.0459C16.6125 14.4639 16.9104 13.0576 17.5061 11.8271C18.1115 10.5869 18.9709 9.61523 20.0842 8.91211C21.1975 8.20898 22.5256 7.85742 24.0686 7.85742C25.6018 7.85742 26.8908 8.17969 27.9357 8.82422C28.9807 9.46875 29.7717 10.377 30.3088 11.5488C30.8459 12.7109 31.1145 14.0781 31.1145 15.6504V17.5254H18.4729V14.5518H26.7639V14.2002C26.7639 13.6533 26.6662 13.1699 26.4709 12.75C26.2756 12.3301 25.9777 12.0029 25.5773 11.7686C25.1867 11.5342 24.674 11.417 24.0393 11.417C23.3166 11.417 22.7355 11.6221 22.2961 12.0322C21.8566 12.4424 21.5344 12.9941 21.3293 13.6875C21.134 14.3809 21.0363 15.167 21.0363 16.0459V16.6172C21.0363 17.4277 21.1877 18.1406 21.4904 18.7559C21.7932 19.3711 22.2277 19.8545 22.7941 20.2061C23.3605 20.5479 24.0441 20.7188 24.8449 20.7188C25.5969 20.7188 26.3 20.582 26.9543 20.3086C27.6086 20.0254 28.1652 19.5859 28.6242 18.9902L30.7629 21.4365C30.2648 22.1494 29.4934 22.8037 28.4484 23.3994C27.4133 23.9951 26.1193 24.293 24.5666 24.293ZM39.6264 24.293C37.9564 24.293 36.5258 23.9463 35.3344 23.2529C34.1527 22.5596 33.2445 21.6318 32.6098 20.4697C31.9848 19.3076 31.6723 18.0234 31.6723 16.6172V16.0459C31.6723 14.4639 31.9701 13.0576 32.5658 11.8271C33.1713 10.5869 34.0307 9.61523 35.1439 8.91211C36.2572 8.20898 37.5854 7.85742 39.1283 7.85742C40.6615 7.85742 41.9506 8.17969 42.9955 8.82422C44.0404 9.46875 44.8314 10.377 45.3686 11.5488C45.9057 12.7109 46.1742 14.0781 46.1742 15.6504V17.5254H33.5326V14.5518H41.8236V14.2002C41.8236 13.6533 41.726 13.1699 41.5307 12.75C41.3354 12.3301 41.0375 12.0029 40.6371 11.7686C40.2465 11.5342 39.7338 11.417 39.099 11.417C38.3764 11.417 37.7953 11.6221 37.3559 12.0322C36.9164 12.4424 36.5941 12.9941 36.3891 13.6875C36.1938 14.3809 36.0961 15.167 36.0961 16.0459V16.6172C36.0961 17.4277 36.2475 18.1406 36.5502 18.7559C36.8529 19.3711 37.2875 19.8545 37.8539 20.2061C38.4203 20.5479 39.1039 20.7188 39.9047 20.7188C40.6566 20.7188 41.3598 20.582 42.0141 20.3086C42.6684 20.0254 43.225 19.5859 43.684 18.9902L45.8227 21.4365C45.3246 22.1494 44.5531 22.8037 43.5082 23.3994C42.473 23.9951 41.1791 24.293 39.6264 24.293ZM51.7125 30.0938H47.2887V8.15039H51.3902L51.7125 11.1973V30.0938ZM61.6734 16.207C61.6734 17.7402 61.4342 19.1172 60.9557 20.3379C60.4869 21.5586 59.7936 22.5254 58.8756 23.2383C57.9674 23.9414 56.8443 24.293 55.5064 24.293C54.2076 24.293 53.1383 23.9414 52.2984 23.2383C51.4684 22.5254 50.8238 21.5684 50.3648 20.3672C49.9059 19.166 49.5738 17.8379 49.3688 16.3828V15.9287C49.5641 14.376 49.8912 12.9941 50.3502 11.7832C50.8189 10.5625 51.4684 9.60547 52.2984 8.91211C53.1383 8.20898 54.2027 7.85742 55.4918 7.85742C56.8297 7.85742 57.9576 8.19434 58.8756 8.86816C59.7936 9.53223 60.4869 10.4697 60.9557 11.6807C61.4342 12.8818 61.6734 14.2881 61.6734 15.8994V16.207ZM57.2496 15.8994C57.2496 15.04 57.152 14.2783 56.9566 13.6143C56.7711 12.9404 56.4635 12.4131 56.0338 12.0322C55.6041 11.6416 55.0328 11.4463 54.3199 11.4463C53.773 11.4463 53.3043 11.5342 52.9137 11.71C52.5328 11.876 52.2154 12.125 51.9615 12.457C51.7174 12.7891 51.5318 13.1992 51.4049 13.6875C51.2877 14.166 51.2193 14.7227 51.1998 15.3574V16.9688C51.2389 17.6914 51.3609 18.3359 51.566 18.9023C51.7809 19.4688 52.1129 19.918 52.5621 20.25C53.0113 20.5723 53.607 20.7334 54.3492 20.7334C55.0719 20.7334 55.6432 20.5283 56.0631 20.1182C56.483 19.708 56.7857 19.1611 56.9713 18.4775C57.1568 17.7842 57.2496 17.0273 57.2496 16.207V15.8994ZM78.8877 2.67188H81.3486L82.0078 5.17676L77.5254 24H74.8594L74.6836 21.1729L78.8877 2.67188ZM76.2363 21.2168L75.8115 24H72.8672L68.1797 2.67188H72.7646L76.2363 21.2168ZM88.8926 2.67188H93.4629L88.79 24H85.8311L85.4648 21.1436L88.8926 2.67188ZM87.0176 21.2607L86.7979 24H84.1318L79.6201 5.16211L80.3379 2.67188H82.7695L87.0176 21.2607ZM102.18 13.4385C102.18 12.7256 102.004 12.1592 101.653 11.7393C101.301 11.3193 100.739 11.1094 99.968 11.1094C99.5285 11.1094 99.1477 11.1826 98.8254 11.3291C98.5031 11.4756 98.259 11.6855 98.093 11.959C97.927 12.2227 97.8439 12.5498 97.8439 12.9404H93.4201C93.4201 12.0029 93.6984 11.1533 94.2551 10.3916C94.8117 9.62012 95.5979 9.00488 96.6135 8.5459C97.6291 8.08691 98.8254 7.85742 100.202 7.85742C101.433 7.85742 102.531 8.06738 103.498 8.4873C104.465 8.89746 105.227 9.51758 105.783 10.3477C106.34 11.1777 106.618 12.2178 106.618 13.4678V20.0889C106.618 21.0264 106.672 21.7686 106.779 22.3154C106.897 22.8623 107.058 23.3408 107.263 23.751V24H102.81C102.595 23.5508 102.434 22.9893 102.326 22.3154C102.229 21.6416 102.18 20.958 102.18 20.2646V13.4385ZM102.78 16.8516H100.525C99.4504 16.8516 98.674 17.0859 98.1955 17.5547C97.717 18.0137 97.4777 18.5703 97.4777 19.2246C97.4777 19.7227 97.6535 20.1328 98.0051 20.4551C98.3566 20.7773 98.8303 20.9385 99.426 20.9385C100.041 20.9385 100.569 20.8213 101.008 20.5869C101.457 20.3428 101.799 20.0547 102.033 19.7227C102.278 19.3809 102.395 19.0684 102.385 18.7852L103.528 20.6895C103.371 21.0801 103.161 21.4854 102.898 21.9053C102.644 22.3252 102.317 22.7158 101.916 23.0771C101.516 23.4385 101.028 23.7314 100.451 23.9561C99.885 24.1807 99.216 24.293 98.4445 24.293C97.4484 24.293 96.5402 24.0928 95.7199 23.6924C94.8996 23.2822 94.2502 22.7207 93.7717 22.0078C93.2932 21.2852 93.0539 20.46 93.0539 19.5322C93.0539 17.8721 93.6691 16.5879 94.8996 15.6797C96.1301 14.7617 97.9611 14.3027 100.393 14.3027H102.751L102.78 16.8516ZM117.152 8.15039H121.781L116.478 24H113.68L113.768 20.7334L117.152 8.15039ZM114.925 20.748L114.998 24H112.201L106.883 8.15039H111.541L114.925 20.748ZM129.78 24.293C128.11 24.293 126.679 23.9463 125.488 23.2529C124.306 22.5596 123.398 21.6318 122.763 20.4697C122.138 19.3076 121.826 18.0234 121.826 16.6172V16.0459C121.826 14.4639 122.124 13.0576 122.719 11.8271C123.325 10.5869 124.184 9.61523 125.297 8.91211C126.411 8.20898 127.739 7.85742 129.282 7.85742C130.815 7.85742 132.104 8.17969 133.149 8.82422C134.194 9.46875 134.985 10.377 135.522 11.5488C136.059 12.7109 136.328 14.0781 136.328 15.6504V17.5254H123.686V14.5518H131.977V14.2002C131.977 13.6533 131.879 13.1699 131.684 12.75C131.489 12.3301 131.191 12.0029 130.791 11.7686C130.4 11.5342 129.887 11.417 129.253 11.417C128.53 11.417 127.949 11.6221 127.509 12.0322C127.07 12.4424 126.748 12.9941 126.543 13.6875C126.347 14.3809 126.25 15.167 126.25 16.0459V16.6172C126.25 17.4277 126.401 18.1406 126.704 18.7559C127.006 19.3711 127.441 19.8545 128.007 20.2061C128.574 20.5479 129.257 20.7188 130.058 20.7188C130.81 20.7188 131.513 20.582 132.168 20.3086C132.822 20.0254 133.379 19.5859 133.838 18.9902L135.976 21.4365C135.478 22.1494 134.707 22.8037 133.662 23.3994C132.627 23.9951 131.333 24.293 129.78 24.293Z" fill="white"/>
<path d="M143.918 10.6328L143.898 9.30469H145.666C146.109 9.29818 146.496 9.20052 146.828 9.01172C147.167 8.82292 147.336 8.54622 147.336 8.18164C147.336 7.71289 147.209 7.38737 146.955 7.20508C146.708 7.01628 146.265 6.92188 145.627 6.92188H144.367V13.9141H142.883V5.61328H145.627C146.597 5.61328 147.368 5.83138 147.941 6.26758C148.521 6.69727 148.811 7.33529 148.811 8.18164C148.811 8.70898 148.625 9.14518 148.254 9.49023C147.883 9.82878 147.352 10.0924 146.662 10.2812C146.643 10.2812 146.62 10.3073 146.594 10.3594C146.574 10.4049 146.555 10.4277 146.535 10.4277C146.424 10.4928 146.353 10.5417 146.32 10.5742C146.294 10.6003 146.265 10.6165 146.232 10.623C146.206 10.6296 146.128 10.6328 145.998 10.6328H143.918ZM146.115 9.5293C147.137 9.5293 147.837 9.76042 148.215 10.2227C148.592 10.6784 148.781 11.2611 148.781 11.9707V12.5176C148.781 12.7585 148.794 12.9896 148.82 13.2109C148.846 13.4258 148.889 13.6081 148.947 13.7578V13.9141H147.424C147.359 13.7448 147.32 13.5039 147.307 13.1914C147.3 12.8789 147.297 12.651 147.297 12.5078V11.9805C147.297 11.5247 147.189 11.1862 146.975 10.9648C146.766 10.7435 146.408 10.6328 145.9 10.6328L146.115 9.5293ZM140.041 9.88086C140.041 10.7402 140.188 11.541 140.48 12.2832C140.78 13.0189 141.19 13.6634 141.711 14.2168C142.238 14.7637 142.847 15.1934 143.537 15.5059C144.234 15.8118 144.979 15.9648 145.773 15.9648C146.561 15.9648 147.3 15.8118 147.99 15.5059C148.68 15.1934 149.286 14.7637 149.807 14.2168C150.334 13.6634 150.747 13.0189 151.047 12.2832C151.346 11.541 151.496 10.7402 151.496 9.88086C151.496 9.02148 151.346 8.22396 151.047 7.48828C150.747 6.7526 150.334 6.11133 149.807 5.56445C149.286 5.01107 148.68 4.58138 147.99 4.27539C147.3 3.9694 146.561 3.81641 145.773 3.81641C144.979 3.81641 144.234 3.9694 143.537 4.27539C142.847 4.58138 142.238 5.01107 141.711 5.56445C141.19 6.11133 140.78 6.7526 140.48 7.48828C140.188 8.22396 140.041 9.02148 140.041 9.88086ZM138.84 9.88086C138.84 8.8457 139.019 7.88542 139.377 7C139.735 6.11458 140.233 5.3431 140.871 4.68555C141.509 4.02148 142.245 3.50716 143.078 3.14258C143.918 2.77148 144.816 2.58594 145.773 2.58594C146.73 2.58594 147.626 2.77148 148.459 3.14258C149.292 3.50716 150.028 4.02148 150.666 4.68555C151.304 5.3431 151.802 6.11458 152.16 7C152.525 7.88542 152.707 8.8457 152.707 9.88086C152.707 10.916 152.525 11.8763 152.16 12.7617C151.802 13.6471 151.304 14.4219 150.666 15.0859C150.028 15.75 149.292 16.2676 148.459 16.6387C147.626 17.0098 146.73 17.1953 145.773 17.1953C144.816 17.1953 143.918 17.0098 143.078 16.6387C142.245 16.2676 141.509 15.75 140.871 15.0859C140.233 14.4219 139.735 13.6471 139.377 12.7617C139.019 11.8763 138.84 10.916 138.84 9.88086Z" fill="white"/>
</svg>
