<svg xmlns="http://www.w3.org/2000/svg" width="800" height="316.5"><g fill="#424d07"><path d="M137.7 0h65.12v169c0 29.1-12.6 89.97-102.8 89.97S.05 202.24.05 170.3v-31.13H63v30.52c0 18.67 12.42 36 36.34 36 23.78 0 38.38-13.18 38.38-35.4V-.01zm471.4 316.5V77.6h60.16v27.15c9.488-26 35.08-31.9 53.8-32.02 30.05 0 76.9 20.76 76.9 94.23 0 56.76-27.9 98.16-76.2 98.3-24.37.076-42.73-8.565-53.8-22.9v74.14H609.1zM668.5 169c-.68 35.32 7.018 53.9 36.4 53.9 29.32 0 33.63-31.75 33.63-55.98 0-24.27-5.68-47.76-36.45-47.76-18.8 0-32.8 14.47-33.58 49.82"/><path id="a" d="M303.5 70.62c51 0 95.9 19.43 95.9 108.6H278.3c0 28.47 11.92 40.22 32.9 40.22 20.9 0 27.93-16.54 27.93-16.54h59.5c0 25.6-35.66 60.14-89.58 59.6-61.52 0-91.68-45.12-91.68-91.42 0-46.4 26.73-100.5 86.1-100.5m36.43 72.7c0-17.3-9.786-33.95-32.2-33.95-21.75 0-29.4 15.34-29.4 33.95h61.6z"/><use x="194" href="#a"/></g></svg>