<svg width="16" height="16" viewBox="0 0 16 16" fill="none" xmlns="http://www.w3.org/2000/svg">
<g clip-path="url(#clip0_291_104)">
<path d="M7.35641 15.28C6.28974 15.28 5.38307 15.0667 4.63641 14.64C3.88974 14.2 3.26974 13.5467 2.77641 12.68L4.79641 11.18C5.08974 11.7133 5.42307 12.1067 5.79641 12.36C6.16974 12.6 6.56974 12.72 6.99641 12.72C7.64974 12.72 8.14307 12.52 8.47641 12.12C8.80974 11.72 8.97641 11.0067 8.97641 9.98V0.179999H11.9364V10.22C11.9364 11.1533 11.7764 12.0067 11.4564 12.78C11.1364 13.54 10.6364 14.1467 9.95641 14.6C9.28974 15.0533 8.42307 15.28 7.35641 15.28Z" fill="black"/>
</g>
<defs>
<clipPath id="clip0_291_104">
<rect width="16" height="16" fill="white"/>
</clipPath>
</defs>
</svg>
