<svg width="32" height="32" viewBox="0 0 32 32" fill="none" xmlns="http://www.w3.org/2000/svg">
<circle cx="16" cy="16" r="15" fill="#E10E17"/>
<path d="M9.91156 24C9.91156 21.312 9.91156 18.592 9.91156 15.84C9.91156 13.088 9.91156 10.368 9.91156 7.68C10.9036 7.68 11.8956 7.68 12.8876 7.68C13.8956 7.68 14.8876 7.68 15.8636 7.68C16.9676 7.68 17.9356 7.88 18.7676 8.28C19.5996 8.664 20.2476 9.208 20.7116 9.912C21.1756 10.6 21.4076 11.416 21.4076 12.36C21.4076 13.032 21.2796 13.64 21.0236 14.184C20.7676 14.728 20.3836 15.184 19.8716 15.552C20.5436 15.952 21.0556 16.472 21.4076 17.112C21.7596 17.736 21.9356 18.432 21.9356 19.2C21.9356 20.16 21.6876 21 21.1916 21.72C20.7116 22.44 20.0316 23 19.1516 23.4C18.2876 23.8 17.2716 24 16.1036 24C15.0796 24 14.0476 24 13.0076 24C11.9676 24 10.9356 24 9.91156 24ZM17.2076 12.768C17.2076 12.352 17.0796 12.016 16.8236 11.76C16.5676 11.488 16.2316 11.352 15.8156 11.352C15.5276 11.352 15.2316 11.352 14.9276 11.352C14.6396 11.352 14.3516 11.352 14.0636 11.352C14.0636 11.8 14.0636 12.264 14.0636 12.744C14.0636 13.208 14.0636 13.672 14.0636 14.136C14.3516 14.136 14.6396 14.136 14.9276 14.136C15.2316 14.136 15.5276 14.136 15.8156 14.136C16.2316 14.136 16.5676 14.016 16.8236 13.776C17.0796 13.52 17.2076 13.184 17.2076 12.768ZM17.7356 18.816C17.7356 18.368 17.5836 18.016 17.2796 17.76C16.9916 17.488 16.5916 17.352 16.0796 17.352C15.7436 17.352 15.4076 17.352 15.0716 17.352C14.7356 17.352 14.3996 17.352 14.0636 17.352C14.0636 17.848 14.0636 18.344 14.0636 18.84C14.0636 19.336 14.0636 19.832 14.0636 20.328C14.3996 20.328 14.7356 20.328 15.0716 20.328C15.4076 20.328 15.7436 20.328 16.0796 20.328C16.5916 20.328 16.9916 20.192 17.2796 19.92C17.5836 19.648 17.7356 19.28 17.7356 18.816Z" fill="white"/>
</svg>
